<svg xmlns="http://www.w3.org/2000/svg" width="1164.753" height="190.136" viewBox="0 0 1164.753 190.136"><g transform="translate(-374 -445)"><path d="M100,120l14.96-39.54c12.49-1.344,25.935.572,38.3-1.7,14.455-2.651,18.489-23.994,7.231-32.759C159.343,45.111,153.4,42,152.5,42H40V0H160.5c1.949,0,11.543,3.045,14.021,3.979,44.126,16.626,46.621,85.58,6.15,108.192C176.229,114.651,163.119,120,158.5,120Z" transform="translate(374 445)" fill="#e9e9e9"></path><path d="M99.992,71l-45.5,114.986c-17.465,6.332-36.31,3.338-54.487,4,11.18-29.254,21.032-59.412,33.245-88.245,2.01-4.742,3.4-9.162,6.777-13.223C52.288,73.78,82.41,74.9,99.992,71" transform="translate(374 445)" fill="#d3024e"></path><g transform="translate(-10 10)"><path d="M17.584,0h2.94l-8.9-19.6H8.848L-.028,0H2.856L5.012-4.9H15.428ZM5.992-7.14l4.228-9.6,4.228,9.6ZM60.508-3.528a8.3,8.3,0,0,1-4.592,1.26A7.441,7.441,0,0,1,48.132-9.8c0-4.368,3.276-7.532,7.812-7.532a7.77,7.77,0,0,1,5.684,2.268L63.364-16.8a9.824,9.824,0,0,0-7.532-3.024c-6.076,0-10.5,4.228-10.5,10.024S49.756.224,55.776.224A11.584,11.584,0,0,0,63.2-2.268V-9.912H60.508ZM99.26-23.352l2.576,2.156h2.436l-3.724-3.64H97.972L94.248-21.2h2.436ZM95.116-2.436V-8.764h9.828v-2.38H95.116v-6.02h11.032V-19.6H92.316V0H106.54V-2.436ZM148.9-19.6V-4.984L137.144-19.6h-2.3V0h2.8V-14.616L149.408,0h2.3V-19.6ZM190.12.224a9.725,9.725,0,0,0,7.476-3.08l-1.82-1.764a7.288,7.288,0,0,1-5.516,2.352,7.4,7.4,0,0,1-7.7-7.532,7.4,7.4,0,0,1,7.7-7.532,7.262,7.262,0,0,1,5.516,2.324l1.82-1.764a9.685,9.685,0,0,0-7.448-3.052c-5.964,0-10.388,4.228-10.388,10.024S184.184.224,190.12.224ZM225.372,0h2.8V-19.6h-2.8Zm47.1,0h2.94l-8.9-19.6h-2.772L254.856,0h2.884L259.9-4.9h10.416ZM260.876-7.14l4.228-9.6,4.228,9.6ZM333.4,0h8.26c6.3,0,10.584-3.976,10.584-9.8s-4.284-9.8-10.584-9.8H333.4Zm2.8-2.436V-17.164h5.292c4.844,0,7.952,2.968,7.952,7.364s-3.108,7.364-7.952,7.364ZM380.3,0h2.8V-19.6h-2.8Zm46.032-3.528a8.3,8.3,0,0,1-4.592,1.26A7.441,7.441,0,0,1,413.952-9.8c0-4.368,3.276-7.532,7.812-7.532a7.77,7.77,0,0,1,5.684,2.268l1.736-1.736a9.824,9.824,0,0,0-7.532-3.024c-6.076,0-10.5,4.228-10.5,10.024S415.576.224,421.6.224a11.584,11.584,0,0,0,7.42-2.492V-9.912h-2.688ZM458.136,0h2.8V-19.6h-2.8ZM494.48,0h2.772V-17.164h6.72V-19.6H487.76v2.436h6.72Zm49.98,0h2.94l-8.9-19.6h-2.772L526.848,0h2.884l2.156-4.9H542.3ZM532.868-7.14l4.228-9.6,4.228,9.6ZM574.084,0H587.5V-2.436H576.884V-19.6h-2.8Z" transform="translate(659.028 597)" fill="#d3024e"></path><path d="M23.255-386.969c-3.336-16.691-.73-38.2-.255-55.244H50v48.5a40.593,40.593,0,0,0,2.536,5.465c5.651,7.852,24.276,7.852,29.927,0A40.483,40.483,0,0,0,85-393.714v-48.5h27v48.5c0,4.469-2.943,14.584-5.565,18.436-6.984,10.26-22.745,15.723-38.732,15.724C47.531-359.553,27-368.247,23.255-386.969ZM-62.98-364.733c-30.531-12.883-31.3-61.124-.7-74.658,26.825-11.864,74.719-6.3,76.677,30.177H-14.5c-.688,0-3.851-7.941-8.828-10.16-18.971-8.457-40.625,2.843-33.189,25.177,4.989,14.979,32.611,15.875,39.938,2.852.609-1.082.434-2.869.58-2.869H13c-2.138,24.492-26.01,34.519-49,34.519A71.018,71.018,0,0,1-62.98-364.733Zm-99.445,2.444c-43.969-11.1-40.408-75.927,7.2-81.645,28.855-3.464,61.738,4.886,63.216,39.247,1.358,31.562-23.912,44.888-50.423,44.889A82.175,82.175,0,0,1-162.425-362.289Zm2.773-54.574c-7.073,6.719-7.017,23.854.691,30.11,13.378,10.859,39.951,4.27,38.883-16.8-.644-12.713-12.075-19.207-23.25-19.208C-149.451-422.758-155.5-420.808-159.652-416.863ZM486.5-362.212c-2.6-2.246-2.863-8.185-4.387-10.409-.659-.962-13.728-.767-23.938-.571-5.368.1-9.947.205-11.514.14-3.2,1.091-4.062,10.84-4.661,10.84H413L447.111-442.1a114.561,114.561,0,0,0,12.784-.61c6.385-.544,12.769-1.087,19.121-.022,12.87,26.194,24.608,53.467,35.984,80.517Zm-32.5-30h20c-1.228-3.243-9.087-24.954-10.5-24.98C459.864-409.123,455.966-400.811,454-392.213Zm-130,30v-80c5.462.023,10.93.011,16.4,0,7.713-.017,15.429-.035,23.14.049,1.872.02,3.665.01,5.4,0,10.174-.054,18.349-.109,28.727,5.787,23.442,13.317,24.383,52.075,2.247,66.579-3.593,2.354-15.527,7.587-19.413,7.587Zm27-21h21.5A42.939,42.939,0,0,0,379.712-386c11.008-6.312,11.137-26.041,0-32.424a42.976,42.976,0,0,0-7.212-2.788H351Zm-63.5,21c-2.6-2.246-2.863-8.185-4.387-10.409-.659-.962-13.728-.767-23.938-.571-5.368.1-9.947.205-11.514.14-2.435.789-4.246,10.84-6.161,10.84H214l34.114-79.881a142.672,142.672,0,0,1,31.9-.635c12.971,26.151,24.541,53.494,35.984,80.517Zm-23.487-55-9.013,25h20c-.735-2.071-9.014-25.038-10.863-25.04A.2.2,0,0,0,264.012-417.21Zm-85.513,55L162.8-385l-11.8-.208v23H124v-80c8.876.686,18.4.281,27.912-.124,10.493-.446,20.98-.893,30.588.124,25.736,2.722,33.674,31,16.521,48.521l-8.008,4.961L209-362.212Zm-27.5-43h23.5c6.67,0,7.8-16,1-16H151Zm-379.5,43c-4.569-3.28-12.128-20.461-15.505-22.5-1.479-.891-4.352-.713-7.09-.535a24.262,24.262,0,0,1-4.9.03v23h-27v-80c6.161.092,12.285-.22,18.411-.531,6.36-.323,12.723-.645,19.137-.517,8.194.165,22.4.6,29.725,3.274,23,8.4,21.7,42.425-.256,51.272l17.982,26.5Zm-27.5-43h22.5c8.353,0,8.131-16,2-16H-256Zm-118,43v-80h59.5c1.113,0,9.517,3.134,11.032,3.967,23.208,12.757,13.17,54.032-14.033,54.032H-346v22Zm28-42h20.5c.913,0,5.657-2.442,6.4-3.6,1.822-2.822,1.773-9.607-.925-11.88a34.677,34.677,0,0,0-6.478-2.523H-346Z" transform="translate(1033 913.213)" fill="#e9e9e9" stroke="rgba(0,0,0,0)" stroke-width="1"></path></g></g></svg>